<svg width="83" height="124" viewBox="0 0 83 124" fill="none" xmlns="http://www.w3.org/2000/svg">
<path fill-rule="evenodd" clip-rule="evenodd" d="M34.3949 90.8573C40.588 91.8607 42.2831 92.0025 48.5911 90.9054C48.9271 97.4896 48.7166 98.5056 45.5177 102.432C43.6039 104.782 44.3361 104.686 39.4631 104.686C35.7644 98.1225 34.7351 102.034 34.3949 90.8573ZM46.027 104.538C49.4374 98.0448 49.8237 105.455 50.2634 90.6632C55.7981 86.6192 61.8324 89.28 67.1435 92.1257C67.4147 97.309 63.4295 98.8002 59.24 101.007C55.1259 103.175 51.2475 104.356 46.027 104.538V104.538ZM32.7728 90.134C33.5252 101.222 32.1646 97.8913 37.4328 104.33C32.3371 104.53 2.03767 95.4338 21.2015 89.2378C27.9023 87.0715 27.2924 87.7956 32.7728 90.134ZM65.1099 53.6162L65.8598 52.91L66.4899 52.1335L66.9766 51.2119L68.2951 48.7883C68.8183 51.5006 68.8839 50.9664 67.946 53.1623C68.2546 64.4775 65.9757 71.2676 61.4468 79.0231C54.265 91.3232 32.44 96.4389 21.2088 77.2179C17.5474 70.9519 13.9896 59.2991 15.2385 50.2221C17.1626 53.2045 17.2218 53.3066 20.7415 54.8248C36.1143 61.4563 38.7002 47.3747 39.77 45.6294L43.1957 45.4388C43.7749 46.2978 43.5472 45.9544 44.0162 47.0405C48.8032 58.1143 54.052 58.2198 65.1099 53.6162V53.6162ZM36.899 43.1712C37.7681 50.2465 33.1032 55.0661 26.1044 54.3268C18.9817 53.5749 15.3203 49.5444 16.2742 41.4082L36.899 43.1712ZM69.9319 60.7329C69.1706 61.6335 69.9764 61.6335 69.2232 60.7329L69.9399 58.9962C69.9399 52.9665 69.0572 50.574 71.311 47.8718V55.0164C73.7956 54.3252 73.5074 54.4559 73.5228 50.7276C73.539 46.9139 73.7058 46.7097 70.6251 46.4422C70.6922 43.3028 71.0891 44.2168 71.311 41.4412C73.4782 42.5248 76.1694 40.8951 74.8121 50.7715C74.2678 54.7294 73.654 59.7026 69.9319 60.7329V60.7329ZM46.2441 43.1855C51.5422 42.7763 56.8218 42.3543 62.0219 41.7964C65.5724 41.4158 66.9094 40.3745 67.0519 44.2447C67.5386 57.4755 44.1279 58.6468 46.2441 43.1855ZM9.60015 47.8718C9.60015 53.2736 10.0343 51.8686 10.2853 55.0164H12.3424C11.6888 52.0913 11.6572 51.6618 11.6572 47.8718H13.0283C13.0283 49.9234 12.9214 52.2947 13.0251 54.3058C13.1669 57.0552 13.7143 57.8004 13.7143 60.7329C8.29387 59.225 8.22824 50.6094 8.22824 45.7282C8.22824 42.4817 9.42202 41.6943 12.3424 41.4412V46.4422C7.60065 46.9832 12.1237 46.8506 9.60015 47.8718V47.8718ZM17.1886 39.3812C22.5054 20.4927 32.665 26.4355 41.8368 26.8289C53.5944 27.3327 63.0504 18.5686 66.2526 39.4883C61.7587 39.7458 57.3077 40.1694 52.8218 40.5711C50.2432 40.8023 41.4197 42.5273 41.2416 42.5154C41.2367 42.5146 36.0058 41.0648 29.6387 40.5305C25.5351 40.1862 21.2954 39.8934 17.1886 39.3812ZM1.91135 108.605C3.58367 102.359 8.33033 100.532 13.0283 97.6178C15.479 97.1613 15.9511 98.2407 17.6964 99.445C23.3978 103.378 28.5146 103.891 32.227 105.746L32.1638 120.103C32.3849 123.767 31.5775 122.066 33.5989 123.61L34.2841 105.746C37.0319 107.12 42.7406 106.461 46.6263 106.461C46.6263 110.939 46.504 112.85 47.3123 116.464H48.6834C49.524 112.705 49.3693 110.38 49.3693 105.746C53.537 105.746 56.9076 104.331 59.6716 102.907C65.9303 99.6812 64.4515 99.5674 67.8829 97.1723C69.8922 97.7318 69.0669 97.5884 70.6251 98.4449C74.9708 100.946 79.77 103.819 80.6407 109.32C81.8466 111.457 79.5238 110.443 82.9674 110.748C82.0871 108.835 82.5576 108.302 81.7137 106.339C79.0566 100.156 70.8437 97.9259 69.3398 94.2254C68.4667 92.0785 69.5552 92.1291 67.0398 90.1906C65.2394 88.8032 60.5819 87.2386 57.5976 87.1694C59.6141 84.0317 69.254 76.0449 69.254 62.8765C76.4035 62.2563 77.5324 50.5933 76.7598 44.3392C76.3581 41.0833 75.434 40.0918 71.997 40.0124C71.997 32.7599 73.5049 25.438 71.5353 19.0581C69.6362 12.9077 64.4928 10.1489 60.3398 7.85938L62.5143 5.11153C59.1436 4.71914 57.2178 3.57229 53.4835 3.57229C54.0642 2.31148 54.2739 1.25997 54.8546 0C44.9888 0 40.7192 1.45316 34.2841 5.00104C35.0712 1.5747 34.7513 3.89039 34.2841 2.8575C26.8989 2.8575 20.2142 8.76821 17.0298 14.8866C13.6001 21.4758 12.3424 30.0618 12.3424 40.0124C8.51411 40.0124 7.45403 39.7297 6.5243 43.2396C5.30709 47.8338 6.90409 55.8737 8.90773 59.3102C10.7648 62.4967 11.4126 62.0976 14.3994 63.5904C14.618 73.8018 21.9975 81.2054 25.3707 86.4546C21.5173 86.7888 14.7776 88.7619 13.3676 92.5248C12.0978 95.9124 14.2286 94.433 11.1608 96.6549C8.59349 98.5142 7.25399 98.6668 3.91731 101.969C1.50157 104.36 0 106.054 0 110.748C2.10816 110.162 1.58003 110.734 1.91135 108.605V108.605Z" fill="black"/>
<path fill-rule="evenodd" clip-rule="evenodd" d="M30.8712 71.4506C31.6924 72.8903 29.7536 71.7233 32.6254 73.1571C33.6725 73.6803 34.8039 73.8997 35.8187 74.1133C40.2292 75.0407 52.1885 76.158 54.0058 71.4987C49.5985 71.8633 48.289 73.7006 41.7979 73.2955C38.6508 73.0988 32.1686 70.8827 30.8712 71.4506V71.4506Z" fill="black"/>
<path fill-rule="evenodd" clip-rule="evenodd" d="M1.91139 108.605C4.25271 107.169 5.72742 105.13 7.71318 103.066C8.80003 101.936 9.37511 101.261 10.4141 100.151L13.0284 97.6178C8.33038 100.532 3.58372 102.359 1.91139 108.605V108.605Z" fill="black"/>
<path fill-rule="evenodd" clip-rule="evenodd" d="M80.6406 109.32C79.77 103.819 74.9707 100.946 70.6251 98.4449L80.6406 109.32V109.32Z" fill="black"/>
<path fill-rule="evenodd" clip-rule="evenodd" d="M24.419 47.978L30.9603 47.892L31.1369 45.4303L24.4279 45.4556L24.419 47.978Z" fill="black"/>
<path fill-rule="evenodd" clip-rule="evenodd" d="M44.6698 60.6655L40.4932 62.6377C41.6222 63.6191 41.1743 64.0461 45.793 62.0663C46.0846 59.0511 45.3791 55.5901 42.8678 54.142L44.6698 60.6655Z" fill="black"/>
<path fill-rule="evenodd" clip-rule="evenodd" d="M52.9514 47.7536L59.6319 47.8599L59.5412 45.8877L52.8331 45.7645L52.9514 47.7536Z" fill="black"/>
<path fill-rule="evenodd" clip-rule="evenodd" d="M38.0871 78.8923C40.251 79.7826 44.7749 80.11 46.7608 78.7353L45.1321 78.4037C44.685 78.3185 38.709 78.0492 38.0871 78.8923Z" fill="black"/>
<path fill-rule="evenodd" clip-rule="evenodd" d="M69.9318 60.7329L69.9399 58.9962L69.2231 60.7329C69.9764 61.6334 69.1705 61.6334 69.9318 60.7329Z" fill="black"/>
</svg>
