<svg width="100" height="100" viewBox="0 0 100 100" fill="none" xmlns="http://www.w3.org/2000/svg">
<rect width="100" height="100" rx="16" fill="#2F3947"/>
<g filter="url(#filter0_d_301_2)">
<path d="M28.8516 46.3281L28.5703 49.625C28.4193 49.5833 28.2708 49.5547 28.125 49.5391C27.9792 49.5234 27.8307 49.5156 27.6797 49.5156C27.3099 49.5156 26.9557 49.5625 26.6172 49.6562C26.2839 49.75 25.987 49.8932 25.7266 50.0859C25.4714 50.2786 25.2656 50.5234 25.1094 50.8203C24.9583 51.112 24.8828 51.4583 24.8828 51.8594C24.8828 52.151 24.9245 52.4062 25.0078 52.625C25.0964 52.8385 25.2188 53.0182 25.375 53.1641C25.5365 53.3047 25.7292 53.4115 25.9531 53.4844C26.1823 53.5573 26.4349 53.5938 26.7109 53.5938C26.9036 53.5938 27.1016 53.5755 27.3047 53.5391C27.5078 53.4974 27.7109 53.4427 27.9141 53.375C28.1172 53.3073 28.3125 53.2292 28.5 53.1406C28.6875 53.0521 28.862 52.9583 29.0234 52.8594L28.8984 56.5312C28.6953 56.6354 28.4766 56.7292 28.2422 56.8125C28.0078 56.8906 27.7656 56.9583 27.5156 57.0156C27.2708 57.0781 27.0234 57.125 26.7734 57.1562C26.5286 57.1875 26.2943 57.2031 26.0703 57.2031C25.3307 57.2031 24.6562 57.0651 24.0469 56.7891C23.4427 56.513 22.9219 56.138 22.4844 55.6641C22.0521 55.1849 21.7161 54.6302 21.4766 54C21.237 53.3698 21.1172 52.6979 21.1172 51.9844C21.1172 51.1302 21.237 50.3333 21.4766 49.5938C21.7214 48.8542 22.0781 48.2135 22.5469 47.6719C23.0208 47.125 23.6042 46.6979 24.2969 46.3906C24.9948 46.0781 25.7943 45.9219 26.6953 45.9219C27.0547 45.9219 27.4193 45.9505 27.7891 46.0078C28.1589 46.0651 28.513 46.1719 28.8516 46.3281ZM39.675 56.6875L35.7688 56.875L35.7375 53.5781H33.9406L33.8313 57H30.3313L30.6281 46.0156L34.3469 46.1875L34.1125 51.7969H35.8469L35.8625 45.9219L39.425 46.0156L39.675 56.6875ZM51.0688 56.3281L47.1938 56.8281L46.725 55.0625H44.9438L44.5531 56.8281L40.5688 56.4375L43.6781 46.0312L48.0219 45.8125L51.0688 56.3281ZM46.4438 52.6719L45.85 49.9531L45.2719 52.6719H46.4438ZM59.3375 45.9844L59.2594 49.2969L56.9312 49.3906L56.65 56.6406L53.3531 56.8125L53.0562 49.5625L50.7281 49.6875L50.8219 46L59.3375 45.9844ZM68.9813 45.9844L68.9031 49.2969L66.575 49.3906L66.2938 56.6406L62.9969 56.8125L62.7 49.5625L60.3719 49.6875L60.4656 46L68.9813 45.9844ZM79.8594 46.4219L76.1875 52.4219L76.2969 56.8438H72.2812L72.375 52.4531L69.5156 46.6562L73.5 46.1562L74.75 49.5312L76.1094 46.1562L79.8594 46.4219Z" fill="white"/>
</g>
<defs>
<filter id="filter0_d_301_2" x="18.1172" y="44.8125" width="62.7422" height="15.3906" filterUnits="userSpaceOnUse" color-interpolation-filters="sRGB">
<feFlood flood-opacity="0" result="BackgroundImageFix"/>
<feColorMatrix in="SourceAlpha" type="matrix" values="0 0 0 0 0 0 0 0 0 0 0 0 0 0 0 0 0 0 127 0" result="hardAlpha"/>
<feOffset dx="-1" dy="1"/>
<feGaussianBlur stdDeviation="1"/>
<feComposite in2="hardAlpha" operator="out"/>
<feColorMatrix type="matrix" values="0 0 0 0 0 0 0 0 0 0 0 0 0 0 0 0 0 0 0.5 0"/>
<feBlend mode="normal" in2="BackgroundImageFix" result="effect1_dropShadow_301_2"/>
<feBlend mode="normal" in="SourceGraphic" in2="effect1_dropShadow_301_2" result="shape"/>
</filter>
</defs>
</svg>
